# Blender v2.76 (sub 0) OBJ File: 'H.blend'
# www.blender.org
mtllib H.mtl
o テキスト
v 0.555000 0.200000 0.000000
v 0.555000 0.200000 -0.297000
v 0.173000 0.200000 -0.297000
v 0.173000 0.200000 0.000000
v 0.075000 0.200000 0.000000
v 0.075000 0.200000 -0.682000
v 0.173000 0.200000 -0.682000
v 0.173000 0.200000 -0.385000
v 0.555000 0.200000 -0.385000
v 0.555000 0.200000 -0.682000
v 0.653000 0.200000 -0.682000
v 0.653000 0.200000 0.000000
v 0.555000 -0.200000 0.000000
v 0.555000 -0.200000 -0.297000
v 0.173000 -0.200000 -0.297000
v 0.173000 -0.200000 0.000000
v 0.075000 -0.200000 0.000000
v 0.075000 -0.200000 -0.682000
v 0.173000 -0.200000 -0.682000
v 0.173000 -0.200000 -0.385000
v 0.555000 -0.200000 -0.385000
v 0.555000 -0.200000 -0.682000
v 0.653000 -0.200000 -0.682000
v 0.653000 -0.200000 0.000000
v 0.555000 -0.200000 0.000000
v 0.555000 0.200000 0.000000
v 0.555000 -0.200000 -0.297000
v 0.555000 0.200000 -0.297000
v 0.173000 -0.200000 -0.297000
v 0.173000 0.200000 -0.297000
v 0.173000 -0.200000 0.000000
v 0.173000 0.200000 0.000000
v 0.075000 -0.200000 0.000000
v 0.075000 0.200000 0.000000
v 0.075000 -0.200000 -0.682000
v 0.075000 0.200000 -0.682000
v 0.173000 -0.200000 -0.682000
v 0.173000 0.200000 -0.682000
v 0.173000 -0.200000 -0.385000
v 0.173000 0.200000 -0.385000
v 0.555000 -0.200000 -0.385000
v 0.555000 0.200000 -0.385000
v 0.555000 -0.200000 -0.682000
v 0.555000 0.200000 -0.682000
v 0.653000 -0.200000 -0.682000
v 0.653000 0.200000 -0.682000
v 0.653000 -0.200000 0.000000
v 0.653000 0.200000 0.000000
vn 0.000000 1.000000 0.000000
vn 0.000000 -1.000000 0.000000
vn -0.707100 0.000000 0.707100
vn 0.707100 0.000000 0.707100
vn -0.707100 0.000000 -0.707100
vn 0.707100 0.000000 -0.707100
usemtl マテリアル
s off
f 5//1 7//1 6//1
f 5//1 8//1 7//1
f 9//1 11//1 10//1
f 9//1 12//1 11//1
f 5//1 3//1 8//1
f 3//1 9//1 8//1
f 3//1 2//1 9//1
f 2//1 12//1 9//1
f 5//1 4//1 3//1
f 1//1 12//1 2//1
f 19//2 17//2 18//2
f 20//2 17//2 19//2
f 23//2 21//2 22//2
f 24//2 21//2 23//2
f 15//2 17//2 20//2
f 21//2 15//2 20//2
f 14//2 15//2 21//2
f 24//2 14//2 21//2
f 16//2 17//2 15//2
f 24//2 13//2 14//2
s 1
f 26//3 28//3 27//3 25//3
f 28//3 30//4 29//4 27//3
f 30//4 32//4 31//4 29//4
f 32//4 34//3 33//3 31//4
f 34//3 36//5 35//5 33//3
f 36//5 38//6 37//6 35//5
f 38//6 40//6 39//6 37//6
f 40//6 42//5 41//5 39//6
f 42//5 44//5 43//5 41//5
f 44//5 46//6 45//6 43//5
f 46//6 48//4 47//4 45//6
f 48//4 26//3 25//3 47//4
