# Blender v2.76 (sub 0) OBJ File: ''
# www.blender.org
mtllib kinoko.mtl
o mesh_Mesh.001
v 0.763499 3.399339 0.949675
v 0.000000 3.399339 0.186176
v 0.000000 3.399339 1.265929
v 1.079753 3.399339 0.186176
v 0.763499 3.399339 -0.577324
v 0.000000 3.399339 -0.893577
v -0.763499 3.399339 -0.577324
v -1.079753 3.399339 0.186176
v -0.763499 3.399339 0.949675
v 0.000000 2.374192 1.278100
v 0.772115 2.374192 0.958290
v 1.091925 2.374192 0.186176
v 0.772115 2.374192 -0.585939
v 0.000000 2.374192 -0.905749
v -0.772114 2.374192 -0.585939
v -1.091925 2.374192 0.186176
v -0.772114 2.374192 0.958290
v 0.000000 1.554418 1.435882
v 0.000000 0.758128 1.811512
v 1.149279 0.758128 1.335454
v 0.883669 1.554419 1.069844
v 1.625336 0.758129 0.186176
v 1.249706 1.554419 0.186176
v 1.149279 0.758129 -0.963103
v 0.883669 1.554419 -0.697493
v 0.000000 0.758129 -1.439160
v 0.000000 1.554419 -1.063531
v -1.149279 0.758129 -0.963103
v -0.883669 1.554419 -0.697493
v -1.625336 0.758129 0.186176
v -1.249706 1.554419 0.186176
v -1.149279 0.758128 1.335454
v -0.883669 1.554419 1.069844
v 0.000000 0.411647 1.779396
v 1.126587 0.411647 1.312762
v 1.593220 0.411648 0.186176
v 1.126587 0.411648 -0.940411
v 0.000000 0.411648 -1.407045
v -1.126586 0.411648 -0.940411
v -1.593220 0.411648 0.186176
v -1.126586 0.411647 1.312762
v 0.000000 0.004019 1.415432
v 0.869221 0.004019 1.055396
v 0.000000 0.004019 0.186176
v 1.229257 0.004019 0.186176
v 0.869221 0.004020 -0.683045
v 0.000000 0.004020 -1.043081
v -0.869221 0.004020 -0.683045
v -1.229257 0.004019 0.186176
v -0.869221 0.004019 1.055396
v 0.525561 6.266318 0.825182
v -0.004484 6.447364 -0.092864
v -0.004484 6.266318 0.967211
v 0.913577 6.266318 0.437166
v 1.055592 6.266318 -0.092864
v 0.913577 6.266318 -0.622893
v 0.525561 6.266318 -1.010909
v -0.004484 6.266318 -1.152938
v -0.534513 6.266318 -1.010909
v -0.922529 6.266318 -0.622909
v -1.064558 6.266318 -0.092864
v -0.922529 6.266318 0.437166
v -0.534513 6.266318 0.825182
v 1.003712 5.795606 1.653383
v 1.741763 5.795606 0.915331
v 2.011907 5.795606 -0.092864
v 1.741763 5.795606 -1.101058
v 1.003712 5.795606 -1.839110
v -0.004484 5.795606 -2.109253
v -1.012679 5.795606 -1.839110
v -1.750715 5.795606 -1.101058
v -2.020874 5.795606 -0.092864
v -1.750715 5.795606 0.915331
v -1.012679 5.795606 1.653383
v -0.004484 5.795606 1.923526
v -0.004484 5.183551 2.682443
v 1.383177 5.183551 2.310628
v 2.399008 5.183551 1.294797
v 2.770838 5.183551 -0.092864
v 2.399008 5.183551 -1.480524
v 1.383177 5.183551 -2.496355
v -0.004484 5.183551 -2.868170
v -1.392144 5.183551 -2.496355
v -2.407975 5.183551 -1.480524
v -2.779790 5.183551 -0.092864
v -2.407975 5.183551 1.294797
v -1.392144 5.183551 2.310628
v 1.626801 4.535023 2.732615
v 2.820995 4.535023 1.538422
v 3.258086 4.535023 -0.092864
v 2.820995 4.535023 -1.724149
v 1.626801 4.535023 -2.918343
v -0.004484 4.535023 -3.355449
v -1.635769 4.535023 -2.918343
v -2.829963 4.535023 -1.724149
v -3.267054 4.535023 -0.092864
v -2.829963 4.535023 1.538422
v -1.635769 4.535023 2.732615
v -0.004484 4.535023 3.169722
v -0.004484 3.900959 3.337615
v 1.710763 3.900959 2.878013
v 2.966393 3.900960 1.622368
v 3.425995 3.900960 -0.092864
v 2.966393 3.900960 -1.808095
v 1.710763 3.900960 -3.063740
v -0.004484 3.900960 -3.523342
v -1.719715 3.900960 -3.063740
v -2.975360 3.900960 -1.808110
v -3.434962 3.900960 -0.092864
v -2.975360 3.900960 1.622368
v -1.719715 3.900959 2.878013
v 1.626801 3.368629 2.732615
v 2.820995 3.368629 1.538422
v 3.258086 3.368629 -0.092864
v 2.820995 3.368629 -1.724149
v 1.626801 3.368629 -2.918343
v -0.004484 3.368629 -3.355449
v -1.635769 3.368629 -2.918343
v -2.829963 3.368629 -1.724149
v -3.267054 3.368629 -0.092864
v -2.829963 3.368629 1.538422
v -1.635769 3.368629 2.732615
v -0.004484 3.368629 3.169722
v -0.004484 3.083884 2.682443
v 1.383177 3.083884 2.310628
v 2.399008 3.083884 1.294797
v 2.770838 3.083884 -0.092864
v 2.399008 3.083884 -1.480524
v 1.383177 3.083884 -2.496355
v -0.004484 3.083885 -2.868170
v -1.392144 3.083884 -2.496355
v -2.407975 3.083884 -1.480524
v -2.779790 3.083884 -0.092864
v -2.407975 3.083884 1.294797
v -1.392144 3.083884 2.310628
v 1.003712 3.133919 1.653383
v 1.741763 3.133919 0.915331
v 2.011907 3.133919 -0.092864
v 1.741763 3.133919 -1.101058
v 1.003712 3.133919 -1.839110
v -0.004484 3.133919 -2.109253
v -1.012679 3.133919 -1.839110
v -1.750715 3.133919 -1.101058
v -2.020874 3.133919 -0.092864
v -1.750715 3.133919 0.915331
v -1.012679 3.133919 1.653383
v -0.004484 3.133919 1.923526
v -0.004484 3.385759 0.967211
v 0.525561 3.385759 0.825182
v 0.913577 3.385759 0.437166
v 1.055592 3.385759 -0.092864
v 0.913577 3.385759 -0.622893
v 0.525561 3.385759 -1.010909
v -0.004484 3.385759 -1.152938
v -0.534513 3.385759 -1.010909
v -0.922529 3.385759 -0.622893
v -1.064558 3.385759 -0.092864
v -0.922529 3.385759 0.437166
v -0.534513 3.385759 0.825182
v -0.004484 3.526812 -0.092864
v -0.853427 2.544266 0.152608
v -0.872116 2.526293 0.035646
v -0.900820 2.564832 0.040653
v -0.844128 2.489273 0.055408
v -0.823472 2.461998 0.095379
v -0.815334 2.449837 0.146080
v -0.820789 2.454488 0.196513
v -0.837600 2.474160 0.236931
v -0.860939 2.504473 0.260359
v -0.946693 2.469958 -0.049661
v -0.890894 2.406915 -0.015681
v -0.849940 2.360686 0.052546
v -0.834202 2.340477 0.138837
v -0.846542 2.348704 0.224502
v -0.881058 2.382057 0.293087
v -0.970210 2.297376 -0.066025
v -0.911729 2.237643 0.022948
v -0.890358 2.211981 0.134992
v -0.908331 2.223157 0.245873
v -1.009913 2.086076 0.000325
v -0.984160 2.056567 0.134008
v -0.853427 2.544266 0.152608
v -0.909315 2.573684 0.246141
v -0.886155 2.539706 0.263489
v -0.927199 2.600421 0.211178
v -0.936857 2.614998 0.164232
v -0.936052 2.613835 0.113441
v -0.923622 2.596129 0.068910
v -0.900820 2.564832 0.040653
v -0.872116 2.526293 0.035646
v -0.844128 2.489273 0.055408
v -0.823472 2.461998 0.095379
v -0.815334 2.449837 0.146080
v -0.820789 2.454488 0.196513
v -0.837600 2.474160 0.236931
v -0.860939 2.504473 0.260359
v -1.020912 2.550884 0.309630
v -0.976648 2.493207 0.338781
v -0.946693 2.469958 -0.049661
v -0.890894 2.406915 -0.015681
v -0.849940 2.360686 0.052546
v -0.834202 2.340477 0.138837
v -0.846542 2.348704 0.224502
v -0.881058 2.382057 0.293087
v -0.927557 2.433475 0.333058
v -0.970210 2.297376 -0.066025
v -0.911729 2.237643 0.022948
v -0.890358 2.211981 0.134992
v -0.908331 2.223157 0.245873
v -0.959211 2.266794 0.334489
v -1.009913 2.086076 0.000325
v -0.984160 2.056567 0.134008
v -1.004637 2.071142 0.265814
v -1.101032 1.872809 0.134724
vn 0.164700 0.944200 0.285300
vn -0.000000 1.000000 -0.000000
vn -0.000000 0.944200 0.329500
vn 0.285400 0.944200 0.164700
vn 0.329500 0.944200 -0.000000
vn 0.285400 0.944200 -0.164700
vn 0.164700 0.944200 -0.285300
vn -0.000000 0.944200 -0.329500
vn -0.164700 0.944200 -0.285300
vn -0.285400 0.944200 -0.164800
vn -0.329500 0.944200 0.000000
vn -0.285400 0.944200 0.164700
vn -0.164700 0.944200 0.285300
vn 0.275400 0.834700 0.477000
vn 0.477000 0.834700 0.275400
vn 0.550800 0.834700 -0.000000
vn 0.477000 0.834700 -0.275400
vn 0.275400 0.834700 -0.477000
vn -0.000000 0.834700 -0.550800
vn -0.275400 0.834700 -0.477000
vn -0.477000 0.834700 -0.275400
vn -0.550800 0.834700 -0.000000
vn -0.477000 0.834700 0.275400
vn -0.275400 0.834700 0.477000
vn -0.000000 0.834700 0.550800
vn -0.000000 0.684800 0.728700
vn 0.364400 0.684800 0.631100
vn 0.631100 0.684800 0.364400
vn 0.728700 0.684800 -0.000000
vn 0.631100 0.684800 -0.364400
vn 0.364400 0.684800 -0.631100
vn 0.000000 0.684800 -0.728700
vn -0.364400 0.684800 -0.631100
vn -0.631100 0.684800 -0.364400
vn -0.728700 0.684800 -0.000000
vn -0.631100 0.684800 0.364400
vn -0.364400 0.684800 0.631100
vn 0.452700 0.424500 0.784100
vn 0.784100 0.424400 0.452700
vn 0.905500 0.424500 -0.000000
vn 0.784100 0.424400 -0.452700
vn 0.452700 0.424500 -0.784100
vn -0.000000 0.424500 -0.905400
vn -0.452700 0.424500 -0.784100
vn -0.784100 0.424500 -0.452700
vn -0.905400 0.424500 0.000000
vn -0.784100 0.424400 0.452700
vn -0.452700 0.424400 0.784100
vn -0.000000 0.424500 0.905400
vn -0.000000 -0.022300 0.999800
vn 0.499900 -0.022300 0.865800
vn 0.865800 -0.022300 0.499900
vn 0.999800 -0.022300 -0.000000
vn 0.865800 -0.022300 -0.499900
vn 0.499900 -0.022300 -0.865800
vn -0.000000 -0.022300 -0.999800
vn -0.499900 -0.022300 -0.865800
vn -0.865800 -0.022300 -0.499900
vn -0.999800 -0.022300 0.000000
vn -0.865800 -0.022300 0.499900
vn -0.499900 -0.022300 0.865800
vn 0.401300 -0.596400 0.695200
vn 0.695200 -0.596400 0.401300
vn 0.802700 -0.596400 -0.000000
vn 0.695200 -0.596400 -0.401300
vn 0.401300 -0.596400 -0.695200
vn -0.000000 -0.596400 -0.802700
vn -0.401400 -0.596400 -0.695200
vn -0.695200 -0.596400 -0.401300
vn -0.802700 -0.596400 0.000000
vn -0.695200 -0.596400 0.401400
vn -0.401400 -0.596400 0.695200
vn -0.000000 -0.596400 0.802700
vn 0.000000 -0.961600 0.274600
vn 0.137300 -0.961600 0.237800
vn 0.237800 -0.961600 0.137300
vn 0.274600 -0.961600 0.000000
vn 0.237800 -0.961600 -0.137300
vn 0.137300 -0.961600 -0.237800
vn -0.000000 -0.961600 -0.274600
vn -0.137300 -0.961600 -0.237800
vn -0.237800 -0.961600 -0.137300
vn -0.274600 -0.961600 0.000000
vn -0.237800 -0.961600 0.137300
vn -0.137300 -0.961600 0.237800
vn -0.072700 -0.989400 -0.125900
vn -0.125900 -0.989400 -0.072700
vn -0.145400 -0.989400 0.000000
vn -0.125900 -0.989400 0.072700
vn -0.072700 -0.989400 0.125900
vn 0.000000 -0.989400 0.145400
vn 0.072700 -0.989400 0.125900
vn 0.125900 -0.989400 0.072700
vn 0.145400 -0.989400 0.000000
vn 0.125900 -0.989400 -0.072700
vn 0.072700 -0.989400 -0.125900
vn 0.000000 -0.989400 -0.145400
vn 0.000000 -0.979000 -0.203600
vn -0.101800 -0.979000 -0.176400
vn -0.176400 -0.979000 -0.101800
vn -0.203600 -0.979000 0.000000
vn -0.176400 -0.979000 0.101800
vn -0.101800 -0.979000 0.176400
vn 0.000000 -0.979000 0.203600
vn 0.101800 -0.979000 0.176400
vn 0.176400 -0.979000 0.101800
vn 0.203700 -0.979000 0.000000
vn 0.176400 -0.979000 -0.101800
vn 0.101800 -0.979000 -0.176400
vn 0.000000 -1.000000 0.000000
vn 0.546400 0.634700 0.546400
vn 0.000000 0.634700 0.772700
vn 0.772700 0.634700 0.000000
vn 0.546400 0.634700 -0.546400
vn 0.000000 0.634700 -0.772700
vn -0.546400 0.634700 -0.546400
vn -0.772700 0.634700 0.000000
vn -0.546400 0.634700 0.546400
vn -0.000000 0.103100 0.994700
vn 0.703300 0.103100 0.703300
vn 0.994700 0.103100 0.000000
vn 0.703300 0.103100 -0.703300
vn -0.000000 0.103100 -0.994700
vn -0.703300 0.103100 -0.703300
vn -0.994700 0.103100 0.000000
vn -0.703300 0.103100 0.703300
vn 0.000000 0.319600 0.947500
vn 0.000000 0.163300 0.986600
vn 0.697600 0.163300 0.697600
vn 0.670000 0.319600 0.670000
vn 0.986600 0.163300 0.000000
vn 0.947500 0.319600 0.000000
vn 0.697600 0.163300 -0.697600
vn 0.670000 0.319600 -0.670000
vn 0.000000 0.163300 -0.986600
vn 0.000000 0.319600 -0.947500
vn -0.697600 0.163300 -0.697600
vn -0.670000 0.319600 -0.670000
vn -0.986600 0.163300 0.000000
vn -0.947500 0.319600 0.000000
vn -0.697600 0.163300 0.697600
vn -0.670000 0.319600 0.670000
vn -0.000000 -0.373700 0.927600
vn 0.655900 -0.373600 0.655900
vn 0.927600 -0.373700 0.000000
vn 0.655900 -0.373600 -0.655900
vn -0.000000 -0.373700 -0.927600
vn -0.655900 -0.373600 -0.655900
vn -0.927600 -0.373700 0.000000
vn -0.655900 -0.373600 0.655900
vn -0.000000 -0.873800 0.486300
vn 0.343900 -0.873800 0.343800
vn 0.486300 -0.873800 -0.000000
vn 0.343900 -0.873800 -0.343900
vn -0.000000 -0.873800 -0.486300
vn -0.343900 -0.873800 -0.343900
vn -0.486300 -0.873800 -0.000000
vn -0.343900 -0.873800 0.343800
vn 0.889300 0.456600 -0.026700
vn 0.723700 0.447100 -0.525800
vn 0.671700 0.562900 -0.481600
vn 0.863600 0.261900 -0.430800
vn 0.959600 0.134300 -0.247200
vn 0.996800 0.077800 -0.018400
vn 0.970800 0.096700 0.219500
vn 0.886100 0.188800 0.423400
vn 0.839300 0.291700 0.458800
vn 0.600100 0.168800 -0.781900
vn 0.711300 -0.018300 -0.702600
vn 0.884800 -0.213200 -0.414300
vn 0.953800 -0.297900 -0.039800
vn 0.900100 -0.263500 0.346900
vn 0.828500 -0.158700 0.537000
vn 0.682100 -0.224800 -0.695800
vn 0.800400 -0.372900 -0.469300
vn 0.885800 -0.462200 -0.042300
vn 0.868000 -0.427900 0.251800
vn 0.799400 -0.461300 -0.384900
vn 0.847100 -0.510400 -0.148100
vn 0.812700 0.582300 0.020100
vn 0.473200 0.734800 0.486000
vn 0.607800 0.545600 0.577000
vn 0.545900 0.791700 0.274200
vn 0.649600 0.759000 0.044200
vn 0.659600 0.749200 -0.060700
vn 0.693300 0.706200 -0.143900
vn 0.695300 0.612700 -0.375800
vn 0.757400 0.346200 0.553600
vn 0.271200 0.649900 0.710000
vn 0.400500 0.479000 0.781200
vn 0.743000 -0.118400 0.658700
vn 0.602600 0.129200 0.787500
vn 0.822900 -0.410100 0.393300
vn 0.717600 -0.296800 0.630000
vn 0.851500 -0.522800 0.041000
vn 0.826200 -0.497400 0.264600
vn 0.829200 -0.526700 0.187100
usemtl Material.001
s 1
f 51//1 52//2 53//3
f 54//4 52//2 51//1
f 55//5 52//2 54//4
f 56//6 52//2 55//5
f 57//7 52//2 56//6
f 58//8 52//2 57//7
f 59//9 52//2 58//8
f 60//10 52//2 59//9
f 61//11 52//2 60//10
f 62//12 52//2 61//11
f 63//13 52//2 62//12
f 53//3 52//2 63//13
f 64//14 51//1 53//3
f 65//15 54//4 51//1
f 66//16 55//5 54//4
f 66//16 67//17 56//6
f 67//17 68//18 57//7
f 68//18 69//19 58//8
f 70//20 59//9 58//8
f 70//20 71//21 60//10
f 71//21 72//22 61//11
f 73//23 62//12 61//11
f 73//23 74//24 63//13
f 74//24 75//25 53//3
f 76//26 77//27 64//14
f 78//28 65//15 64//14
f 79//29 66//16 65//15
f 80//30 67//17 66//16
f 80//30 81//31 68//18
f 82//32 69//19 68//18
f 82//32 83//33 70//20
f 83//33 84//34 71//21
f 84//34 85//35 72//22
f 86//36 73//23 72//22
f 86//36 87//37 74//24
f 76//26 75//25 74//24
f 88//38 77//27 76//26
f 89//39 78//28 77//27
f 89//39 90//40 79//29
f 91//41 80//30 79//29
f 91//41 92//42 81//31
f 92//42 93//43 82//32
f 94//44 83//33 82//32
f 95//45 84//34 83//33
f 95//45 96//46 85//35
f 97//47 86//36 85//35
f 98//48 87//37 86//36
f 98//48 99//49 76//26
f 100//50 101//51 88//38
f 101//51 102//52 89//39
f 102//52 103//53 90//40
f 104//54 91//41 90//40
f 105//55 92//42 91//41
f 106//56 93//43 92//42
f 107//57 94//44 93//43
f 108//58 95//45 94//44
f 109//59 96//46 95//45
f 110//60 97//47 96//46
f 111//61 98//48 97//47
f 111//61 100//50 99//49
f 112//62 101//51 100//50
f 113//63 102//52 101//51
f 114//64 103//53 102//52
f 114//64 115//65 104//54
f 115//65 116//66 105//55
f 116//66 117//67 106//56
f 117//67 118//68 107//57
f 118//68 119//69 108//58
f 119//69 120//70 109//59
f 120//70 121//71 110//60
f 122//72 111//61 110//60
f 123//73 100//50 111//61
f 124//74 125//75 112//62
f 125//75 126//76 113//63
f 127//77 114//64 113//63
f 127//77 128//78 115//65
f 129//79 116//66 115//65
f 130//80 117//67 116//66
f 130//80 131//81 118//68
f 131//81 132//82 119//69
f 133//83 120//70 119//69
f 133//83 134//84 121//71
f 134//84 135//85 122//72
f 124//74 123//73 122//72
f 136//86 125//75 124//74
f 136//86 137//87 126//76
f 137//87 138//88 127//77
f 139//89 128//78 127//77
f 140//90 129//79 128//78
f 140//90 141//91 130//80
f 142//92 131//81 130//80
f 142//92 143//93 132//82
f 144//94 133//83 132//82
f 144//94 145//95 134//84
f 146//96 135//85 134//84
f 146//96 147//97 124//74
f 148//98 149//99 136//86
f 149//99 150//100 137//87
f 150//100 151//101 138//88
f 152//102 139//89 138//88
f 153//103 140//90 139//89
f 154//104 141//91 140//90
f 154//104 155//105 142//92
f 155//105 156//106 143//93
f 157//107 144//94 143//93
f 157//107 158//108 145//95
f 159//109 146//96 145//95
f 148//98 147//97 146//96
f 160//110 149//99 148//98
f 160//110 150//100 149//99
f 160//110 151//101 150//100
f 160//110 152//102 151//101
f 160//110 153//103 152//102
f 160//110 154//104 153//103
f 160//110 155//105 154//104
f 160//110 156//106 155//105
f 160//110 157//107 156//106
f 160//110 158//108 157//107
f 160//110 159//109 158//108
f 160//110 148//98 159//109
f 75//25 64//14 53//3
f 64//14 65//15 51//1
f 65//15 66//16 54//4
f 55//5 66//16 56//6
f 56//6 67//17 57//7
f 57//7 68//18 58//8
f 69//19 70//20 58//8
f 59//9 70//20 60//10
f 60//10 71//21 61//11
f 72//22 73//23 61//11
f 62//12 73//23 63//13
f 63//13 74//24 53//3
f 75//25 76//26 64//14
f 77//27 78//28 64//14
f 78//28 79//29 65//15
f 79//29 80//30 66//16
f 67//17 80//30 68//18
f 81//31 82//32 68//18
f 69//19 82//32 70//20
f 70//20 83//33 71//21
f 71//21 84//34 72//22
f 85//35 86//36 72//22
f 73//23 86//36 74//24
f 87//37 76//26 74//24
f 99//49 88//38 76//26
f 88//38 89//39 77//27
f 78//28 89//39 79//29
f 90//40 91//41 79//29
f 80//30 91//41 81//31
f 81//31 92//42 82//32
f 93//43 94//44 82//32
f 94//44 95//45 83//33
f 84//34 95//45 85//35
f 96//46 97//47 85//35
f 97//47 98//48 86//36
f 87//37 98//48 76//26
f 99//49 100//50 88//38
f 88//38 101//51 89//39
f 89//39 102//52 90//40
f 103//53 104//54 90//40
f 104//54 105//55 91//41
f 105//55 106//56 92//42
f 106//56 107//57 93//43
f 107//57 108//58 94//44
f 108//58 109//59 95//45
f 109//59 110//60 96//46
f 110//60 111//61 97//47
f 98//48 111//61 99//49
f 123//73 112//62 100//50
f 112//62 113//63 101//51
f 113//63 114//64 102//52
f 103//53 114//64 104//54
f 104//54 115//65 105//55
f 105//55 116//66 106//56
f 106//56 117//67 107//57
f 107//57 118//68 108//58
f 108//58 119//69 109//59
f 109//59 120//70 110//60
f 121//71 122//72 110//60
f 122//72 123//73 111//61
f 123//73 124//74 112//62
f 112//62 125//75 113//63
f 126//76 127//77 113//63
f 114//64 127//77 115//65
f 128//78 129//79 115//65
f 129//79 130//80 116//66
f 117//67 130//80 118//68
f 118//68 131//81 119//69
f 132//82 133//83 119//69
f 120//70 133//83 121//71
f 121//71 134//84 122//72
f 135//85 124//74 122//72
f 147//97 136//86 124//74
f 125//75 136//86 126//76
f 126//76 137//87 127//77
f 138//88 139//89 127//77
f 139//89 140//90 128//78
f 129//79 140//90 130//80
f 141//91 142//92 130//80
f 131//81 142//92 132//82
f 143//93 144//94 132//82
f 133//83 144//94 134//84
f 145//95 146//96 134//84
f 135//85 146//96 124//74
f 147//97 148//98 136//86
f 136//86 149//99 137//87
f 137//87 150//100 138//88
f 151//101 152//102 138//88
f 152//102 153//103 139//89
f 153//103 154//104 140//90
f 141//91 154//104 142//92
f 142//92 155//105 143//93
f 156//106 157//107 143//93
f 144//94 157//107 145//95
f 158//108 159//109 145//95
f 159//109 148//98 146//96
usemtl Material.008
f 1//111 2//2 3//112
f 4//113 2//2 1//111
f 5//114 2//2 4//113
f 6//115 2//2 5//114
f 7//116 2//2 6//115
f 8//117 2//2 7//116
f 9//118 2//2 8//117
f 3//112 2//2 9//118
f 1//111 3//112 10//119
f 1//111 11//120 12//121
f 5//114 4//113 12//121
f 5//114 13//122 14//123
f 7//116 6//115 14//123
f 7//116 15//124 16//125
f 9//118 8//117 16//125
f 9//118 17//126 10//119
f 18//127 19//128 20//129
f 10//119 18//127 21//130
f 20//129 22//131 23//132
f 12//121 11//120 21//130
f 23//132 22//131 24//133
f 12//121 23//132 25//134
f 24//133 26//135 27//136
f 14//123 13//122 25//134
f 27//136 26//135 28//137
f 14//123 27//136 29//138
f 28//137 30//139 31//140
f 16//125 15//124 29//138
f 31//140 30//139 32//141
f 16//125 31//140 33//142
f 32//141 19//128 18//127
f 10//119 17//126 33//142
f 20//129 19//128 34//143
f 20//129 35//144 36//145
f 24//133 22//131 36//145
f 24//133 37//146 38//147
f 28//137 26//135 38//147
f 28//137 39//148 40//149
f 32//141 30//139 40//149
f 32//141 41//150 34//143
f 34//143 42//151 43//152
f 43//152 42//151 44//110
f 36//145 35//144 43//152
f 45//153 43//152 44//110
f 36//145 45//153 46//154
f 46//154 45//153 44//110
f 38//147 37//146 46//154
f 47//155 46//154 44//110
f 38//147 47//155 48//156
f 48//156 47//155 44//110
f 40//149 39//148 48//156
f 49//157 48//156 44//110
f 40//149 49//157 50//158
f 50//158 49//157 44//110
f 34//143 41//150 50//158
f 42//151 50//158 44//110
f 11//120 1//111 10//119
f 4//113 1//111 12//121
f 13//122 5//114 12//121
f 6//115 5//114 14//123
f 15//124 7//116 14//123
f 8//117 7//116 16//125
f 17//126 9//118 16//125
f 3//112 9//118 10//119
f 21//130 18//127 20//129
f 11//120 10//119 21//130
f 21//130 20//129 23//132
f 23//132 12//121 21//130
f 25//134 23//132 24//133
f 13//122 12//121 25//134
f 25//134 24//133 27//136
f 27//136 14//123 25//134
f 29//138 27//136 28//137
f 15//124 14//123 29//138
f 29//138 28//137 31//140
f 31//140 16//125 29//138
f 33//142 31//140 32//141
f 17//126 16//125 33//142
f 33//142 32//141 18//127
f 18//127 10//119 33//142
f 35//144 20//129 34//143
f 22//131 20//129 36//145
f 37//146 24//133 36//145
f 26//135 24//133 38//147
f 39//148 28//137 38//147
f 30//139 28//137 40//149
f 41//150 32//141 40//149
f 19//128 32//141 34//143
f 35//144 34//143 43//152
f 45//153 36//145 43//152
f 37//146 36//145 46//154
f 47//155 38//147 46//154
f 39//148 38//147 48//156
f 49//157 40//149 48//156
f 41//150 40//149 50//158
f 42//151 34//143 50//158
usemtl Material_NONE
f 161//159 162//160 163//161
f 161//159 164//162 162//160
f 161//159 165//163 164//162
f 161//159 166//164 165//163
f 161//159 167//165 166//164
f 161//159 168//166 167//165
f 161//159 169//167 168//166
f 163//161 162//160 170//168
f 162//160 164//162 171//169
f 162//160 171//169 170//168
f 164//162 165//163 172//170
f 164//162 172//170 171//169
f 165//163 166//164 173//171
f 165//163 173//171 172//170
f 167//165 174//172 173//171
f 167//165 173//171 166//164
f 168//166 175//173 174//172
f 168//166 174//172 167//165
f 169//167 175//173 168//166
f 170//168 171//169 176//174
f 171//169 172//170 177//175
f 171//169 177//175 176//174
f 173//171 178//176 177//175
f 173//171 177//175 172//170
f 174//172 179//177 178//176
f 174//172 178//176 173//171
f 175//173 179//177 174//172
f 176//174 177//175 180//178
f 178//176 181//179 180//178
f 178//176 180//178 177//175
f 179//177 181//179 178//176
f 182//180 183//181 184//182
f 182//180 185//183 183//181
f 182//180 186//184 185//183
f 182//180 187//185 186//184
f 182//180 188//186 187//185
f 182//180 189//187 188//186
f 182//180 190//160 189//187
f 182//180 191//162 190//160
f 182//180 192//163 191//162
f 182//180 193//164 192//163
f 182//180 194//165 193//164
f 182//180 195//166 194//165
f 182//180 196//188 195//166
f 182//180 184//182 196//188
f 183//181 197//189 198//190
f 183//181 198//190 184//182
f 185//183 197//189 183//181
f 189//187 190//160 199//168
f 190//160 191//162 200//169
f 190//160 200//169 199//168
f 191//162 192//163 201//170
f 191//162 201//170 200//169
f 192//163 193//164 202//171
f 192//163 202//171 201//170
f 194//165 203//172 202//171
f 194//165 202//171 193//164
f 195//166 204//191 203//172
f 195//166 203//172 194//165
f 196//188 205//192 204//191
f 196//188 204//191 195//166
f 184//182 198//190 205//192
f 184//182 205//192 196//188
f 199//168 200//169 206//174
f 200//169 201//170 207//175
f 200//169 207//175 206//174
f 202//171 208//176 207//175
f 202//171 207//175 201//170
f 203//172 209//193 208//176
f 203//172 208//176 202//171
f 204//191 210//194 209//193
f 204//191 209//193 203//172
f 205//192 210//194 204//191
f 206//174 207//175 211//178
f 208//176 212//195 211//178
f 208//176 211//178 207//175
f 209//193 213//196 212//195
f 209//193 212//195 208//176
f 210//194 213//196 209//193
f 213//196 214//197 212//195
