# Blender v2.76 (sub 0) OBJ File: ''
# www.blender.org
mtllib kinoko.mtl
o mesh_Mesh.001
v -0.853427 3.683815 0.152608
v -0.872116 3.665842 0.035646
v -0.900820 3.704382 0.040653
v -0.844128 3.628822 0.055408
v -0.823472 3.601548 0.095379
v -0.815334 3.589387 0.146080
v -0.820789 3.594037 0.196513
v -0.837600 3.613710 0.236931
v -0.860939 3.644023 0.260359
v -0.946693 3.609507 -0.049661
v -0.890894 3.546465 -0.015681
v -0.849940 3.500235 0.052546
v -0.834202 3.480027 0.138837
v -0.846542 3.488253 0.224502
v -0.881058 3.521607 0.293087
v -0.970210 3.436926 -0.066025
v -0.911729 3.377193 0.022948
v -0.890358 3.351530 0.134992
v -0.908331 3.362707 0.245873
v -1.009913 3.225626 0.000325
v -0.984160 3.196117 0.134008
v -0.853427 3.683815 0.152608
v -0.909315 3.713234 0.246141
v -0.886155 3.679255 0.263489
v -0.927199 3.739971 0.211178
v -0.936857 3.754547 0.164232
v -0.936052 3.753384 0.113441
v -0.923622 3.735679 0.068910
v -0.900820 3.704382 0.040653
v -0.872116 3.665842 0.035646
v -0.844128 3.628822 0.055408
v -0.823472 3.601548 0.095379
v -0.815334 3.589387 0.146080
v -0.820789 3.594037 0.196513
v -0.837600 3.613710 0.236931
v -0.860939 3.644023 0.260359
v -1.020912 3.690433 0.309630
v -0.976648 3.632757 0.338781
v -0.946693 3.609507 -0.049661
v -0.890894 3.546465 -0.015681
v -0.849940 3.500235 0.052546
v -0.834202 3.480027 0.138837
v -0.846542 3.488253 0.224502
v -0.881058 3.521607 0.293087
v -0.927557 3.573024 0.333058
v -0.970210 3.436926 -0.066025
v -0.911729 3.377193 0.022948
v -0.890358 3.351530 0.134992
v -0.908331 3.362707 0.245873
v -0.959211 3.406344 0.334489
v -1.009913 3.225626 0.000325
v -0.984160 3.196117 0.134008
v -1.004637 3.210692 0.265814
v -1.101032 3.012359 0.134724
v 0.763499 4.538889 0.949675
v 0.000000 4.538889 0.186176
v 0.000000 4.538889 1.265929
v 1.079753 4.538889 0.186176
v 0.763499 4.538889 -0.577324
v 0.000000 4.538889 -0.893577
v -0.763499 4.538889 -0.577324
v -1.079753 4.538889 0.186176
v -0.763499 4.538889 0.949675
v 0.000000 3.513741 1.278100
v 0.772115 3.513741 0.958290
v 1.091925 3.513741 0.186176
v 0.772115 3.513741 -0.585939
v 0.000000 3.513741 -0.905749
v -0.772114 3.513741 -0.585939
v -1.091925 3.513741 0.186176
v -0.772114 3.513741 0.958290
v 0.000000 2.693968 1.435882
v 0.000000 1.897678 1.811512
v 1.149279 1.897678 1.335454
v 0.883669 2.693968 1.069844
v 1.625336 1.897678 0.186176
v 1.249706 2.693968 0.186176
v 1.149279 1.897678 -0.963103
v 0.883669 2.693968 -0.697493
v 0.000000 1.897678 -1.439160
v 0.000000 2.693968 -1.063531
v -1.149279 1.897678 -0.963103
v -0.883669 2.693968 -0.697493
v -1.625336 1.897678 0.186176
v -1.249706 2.693968 0.186176
v -1.149279 1.897678 1.335454
v -0.883669 2.693968 1.069844
v 0.000000 1.551197 1.779396
v 1.126587 1.551197 1.312762
v 1.593220 1.551197 0.186176
v 1.126587 1.551197 -0.940411
v 0.000000 1.551197 -1.407045
v -1.126586 1.551197 -0.940411
v -1.593220 1.551197 0.186176
v -1.126586 1.551197 1.312762
v 0.000000 1.143569 1.415432
v 0.869221 1.143569 1.055396
v 0.000000 1.143569 0.186176
v 1.229257 1.143569 0.186176
v 0.869221 1.143569 -0.683045
v 0.000000 1.143569 -1.043081
v -0.869221 1.143569 -0.683045
v -1.229257 1.143569 0.186176
v -0.869221 1.143569 1.055396
v 0.525561 7.405868 0.825182
v -0.004484 7.586913 -0.092864
v -0.004484 7.405868 0.967211
v 0.913577 7.405868 0.437166
v 1.055592 7.405868 -0.092864
v 0.913577 7.405868 -0.622893
v 0.525561 7.405868 -1.010909
v -0.004484 7.405868 -1.152938
v -0.534513 7.405868 -1.010909
v -0.922529 7.405868 -0.622909
v -1.064558 7.405868 -0.092864
v -0.922529 7.405868 0.437166
v -0.534513 7.405868 0.825182
v -0.004484 6.935155 1.923526
v 1.003712 6.935155 1.653383
v 1.741763 6.935155 0.915331
v 2.011907 6.935155 -0.092864
v 1.741763 6.935155 -1.101058
v 1.003712 6.935155 -1.839110
v -0.004484 6.935155 -2.109253
v -1.012679 6.935155 -1.839110
v -1.750715 6.935155 -1.101058
v -2.020874 6.935155 -0.092864
v -1.750715 6.935155 0.915331
v -1.012679 6.935155 1.653383
v -0.004484 6.323100 2.682443
v 1.383177 6.323100 2.310628
v 2.399008 6.323100 1.294797
v 2.770838 6.323100 -0.092864
v 2.399008 6.323100 -1.480524
v 1.383177 6.323100 -2.496355
v -0.004484 6.323100 -2.868170
v -1.392144 6.323100 -2.496355
v -2.407975 6.323100 -1.480524
v -2.779790 6.323100 -0.092864
v -2.407975 6.323100 1.294797
v -1.392144 6.323100 2.310628
v -0.004484 5.674572 3.169722
v 1.626801 5.674572 2.732615
v 2.820995 5.674572 1.538422
v 3.258086 5.674572 -0.092864
v 2.820995 5.674572 -1.724149
v 1.626801 5.674572 -2.918343
v -0.004484 5.674572 -3.355449
v -1.635769 5.674572 -2.918343
v -2.829963 5.674572 -1.724149
v -3.267054 5.674572 -0.092864
v -2.829963 5.674572 1.538422
v -1.635769 5.674572 2.732615
v -0.004484 5.040509 3.337615
v 1.710763 5.040509 2.878013
v 2.966393 5.040509 1.622368
v 3.425995 5.040509 -0.092864
v 2.966393 5.040509 -1.808095
v 1.710763 5.040509 -3.063740
v -0.004484 5.040509 -3.523342
v -1.719715 5.040509 -3.063740
v -2.975360 5.040509 -1.808110
v -3.434962 5.040509 -0.092864
v -2.975360 5.040509 1.622368
v -1.719715 5.040509 2.878013
v -0.004484 4.508178 3.169722
v 1.626801 4.508178 2.732615
v 2.820995 4.508178 1.538422
v 3.258086 4.508178 -0.092864
v 2.820995 4.508178 -1.724149
v 1.626801 4.508178 -2.918343
v -0.004484 4.508178 -3.355449
v -1.635769 4.508178 -2.918343
v -2.829963 4.508178 -1.724149
v -3.267054 4.508178 -0.092864
v -2.829963 4.508178 1.538422
v -1.635769 4.508178 2.732615
v -0.004484 4.223434 2.682443
v 1.383177 4.223434 2.310628
v 2.399008 4.223434 1.294797
v 2.770838 4.223434 -0.092864
v 2.399008 4.223434 -1.480524
v 1.383177 4.223434 -2.496355
v -0.004484 4.223434 -2.868170
v -1.392144 4.223434 -2.496355
v -2.407975 4.223434 -1.480524
v -2.779790 4.223434 -0.092864
v -2.407975 4.223434 1.294797
v -1.392144 4.223434 2.310628
v -0.004484 4.273469 1.923526
v 1.003712 4.273469 1.653383
v 1.741763 4.273469 0.915331
v 2.011907 4.273469 -0.092864
v 1.741763 4.273469 -1.101058
v 1.003712 4.273469 -1.839110
v -0.004484 4.273469 -2.109253
v -1.012679 4.273469 -1.839110
v -1.750715 4.273469 -1.101058
v -2.020874 4.273469 -0.092864
v -1.750715 4.273469 0.915331
v -1.012679 4.273469 1.653383
v -0.004484 4.525308 0.967211
v 0.525561 4.525308 0.825182
v 0.913577 4.525308 0.437166
v 1.055592 4.525308 -0.092864
v 0.913577 4.525308 -0.622893
v 0.525561 4.525308 -1.010909
v -0.004484 4.525308 -1.152938
v -0.534513 4.525308 -1.010909
v -0.922529 4.525308 -0.622893
v -1.064558 4.525308 -0.092864
v -0.922529 4.525308 0.437166
v -0.534513 4.525308 0.825182
v -0.004484 4.666362 -0.092864
vn 0.546400 0.634700 0.546400
vn 0.000000 1.000000 -0.000000
vn 0.000000 0.634700 0.772700
vn 0.772700 0.634700 0.000000
vn 0.546400 0.634700 -0.546400
vn 0.000000 0.634700 -0.772700
vn -0.546400 0.634700 -0.546400
vn -0.772700 0.634700 0.000000
vn -0.546400 0.634700 0.546400
vn -0.000000 0.103100 0.994700
vn 0.703300 0.103100 0.703300
vn 0.994700 0.103100 0.000000
vn 0.703300 0.103100 -0.703300
vn -0.000000 0.103100 -0.994700
vn -0.703300 0.103100 -0.703300
vn -0.994700 0.103100 0.000000
vn -0.703300 0.103100 0.703300
vn 0.000000 0.319600 0.947500
vn 0.000000 0.163300 0.986600
vn 0.697600 0.163300 0.697600
vn 0.670000 0.319600 0.670000
vn 0.986600 0.163300 0.000000
vn 0.947500 0.319600 0.000000
vn 0.697600 0.163300 -0.697600
vn 0.670000 0.319600 -0.670000
vn -0.000000 0.163300 -0.986600
vn -0.000000 0.319600 -0.947500
vn -0.697600 0.163300 -0.697600
vn -0.670000 0.319600 -0.670000
vn -0.986600 0.163300 0.000000
vn -0.947500 0.319600 0.000000
vn -0.697600 0.163300 0.697600
vn -0.670000 0.319600 0.670000
vn -0.000000 -0.373700 0.927600
vn 0.655900 -0.373600 0.655900
vn 0.927600 -0.373700 0.000000
vn 0.655900 -0.373600 -0.655900
vn -0.000000 -0.373700 -0.927600
vn -0.655900 -0.373600 -0.655900
vn -0.927600 -0.373700 0.000000
vn -0.655900 -0.373600 0.655900
vn -0.000000 -0.873800 0.486300
vn 0.343800 -0.873800 0.343800
vn 0.000000 -1.000000 0.000000
vn 0.486300 -0.873800 0.000000
vn 0.343800 -0.873800 -0.343800
vn 0.000000 -0.873800 -0.486300
vn -0.343900 -0.873800 -0.343800
vn -0.486300 -0.873800 0.000000
vn -0.343900 -0.873800 0.343800
vn 0.164700 0.944200 0.285300
vn -0.000000 0.944200 0.329500
vn 0.285400 0.944200 0.164700
vn 0.329500 0.944200 -0.000000
vn 0.285400 0.944200 -0.164700
vn 0.164700 0.944200 -0.285300
vn -0.000000 0.944200 -0.329500
vn -0.164700 0.944200 -0.285300
vn -0.285400 0.944200 -0.164800
vn -0.329500 0.944200 0.000000
vn -0.285400 0.944200 0.164800
vn -0.164700 0.944200 0.285300
vn 0.275400 0.834700 0.477000
vn 0.477000 0.834700 0.275400
vn 0.550800 0.834700 -0.000000
vn 0.477000 0.834700 -0.275400
vn 0.275400 0.834700 -0.477000
vn -0.000000 0.834700 -0.550800
vn -0.275400 0.834700 -0.477000
vn -0.477000 0.834700 -0.275400
vn -0.550800 0.834700 -0.000000
vn -0.477000 0.834700 0.275400
vn -0.275400 0.834700 0.477000
vn -0.000000 0.834700 0.550800
vn 0.000000 0.684800 0.728700
vn 0.364400 0.684800 0.631100
vn 0.631100 0.684800 0.364400
vn 0.728700 0.684800 -0.000000
vn 0.631100 0.684800 -0.364400
vn 0.364400 0.684800 -0.631100
vn 0.000000 0.684800 -0.728700
vn -0.364400 0.684800 -0.631100
vn -0.631100 0.684800 -0.364400
vn -0.728700 0.684800 -0.000000
vn -0.631100 0.684800 0.364400
vn -0.364400 0.684800 0.631100
vn 0.452700 0.424500 0.784100
vn 0.784100 0.424400 0.452700
vn 0.905500 0.424500 -0.000000
vn 0.784100 0.424400 -0.452700
vn 0.452700 0.424500 -0.784100
vn -0.000000 0.424500 -0.905400
vn -0.452700 0.424500 -0.784100
vn -0.784100 0.424500 -0.452700
vn -0.905400 0.424500 0.000000
vn -0.784100 0.424400 0.452700
vn -0.452700 0.424500 0.784100
vn -0.000000 0.424500 0.905400
vn -0.000000 -0.022300 0.999800
vn 0.499900 -0.022300 0.865800
vn 0.865800 -0.022300 0.499900
vn 0.999800 -0.022300 -0.000000
vn 0.865800 -0.022300 -0.499900
vn 0.499900 -0.022300 -0.865800
vn -0.000000 -0.022300 -0.999800
vn -0.499900 -0.022300 -0.865800
vn -0.865800 -0.022300 -0.499900
vn -0.999800 -0.022300 0.000000
vn -0.865800 -0.022300 0.499900
vn -0.499900 -0.022300 0.865800
vn 0.401300 -0.596400 0.695200
vn 0.695200 -0.596400 0.401400
vn 0.802700 -0.596400 -0.000000
vn 0.695200 -0.596400 -0.401300
vn 0.401300 -0.596400 -0.695200
vn -0.000000 -0.596400 -0.802700
vn -0.401400 -0.596400 -0.695200
vn -0.695200 -0.596400 -0.401300
vn -0.802700 -0.596400 0.000000
vn -0.695200 -0.596400 0.401400
vn -0.401400 -0.596400 0.695200
vn -0.000000 -0.596400 0.802700
vn -0.000000 -0.961600 0.274600
vn 0.137300 -0.961600 0.237800
vn 0.237800 -0.961600 0.137300
vn 0.274600 -0.961600 0.000000
vn 0.237800 -0.961600 -0.137300
vn 0.137300 -0.961600 -0.237800
vn -0.000000 -0.961600 -0.274600
vn -0.137300 -0.961600 -0.237800
vn -0.237800 -0.961600 -0.137300
vn -0.274600 -0.961600 0.000000
vn -0.237800 -0.961600 0.137300
vn -0.137300 -0.961600 0.237800
vn -0.072700 -0.989400 -0.125900
vn -0.125900 -0.989400 -0.072700
vn -0.145400 -0.989400 0.000000
vn -0.125900 -0.989400 0.072700
vn -0.072700 -0.989400 0.125900
vn 0.000000 -0.989400 0.145400
vn 0.072700 -0.989400 0.125900
vn 0.125900 -0.989400 0.072700
vn 0.145400 -0.989400 0.000000
vn 0.125900 -0.989400 -0.072700
vn 0.072700 -0.989400 -0.125900
vn 0.000000 -0.989400 -0.145400
vn 0.000000 -0.979000 -0.203600
vn -0.101800 -0.979000 -0.176400
vn -0.176400 -0.979000 -0.101800
vn -0.203600 -0.979000 0.000000
vn -0.176400 -0.979000 0.101800
vn -0.101800 -0.979000 0.176400
vn 0.000000 -0.979000 0.203600
vn 0.101800 -0.979000 0.176400
vn 0.176400 -0.979000 0.101800
vn 0.203700 -0.979000 0.000000
vn 0.176400 -0.979000 -0.101800
vn 0.101800 -0.979000 -0.176400
vn 0.889300 0.456600 -0.026700
vn 0.723700 0.447100 -0.525800
vn 0.671700 0.562900 -0.481600
vn 0.863600 0.261900 -0.430800
vn 0.959600 0.134300 -0.247200
vn 0.996800 0.077800 -0.018400
vn 0.970800 0.096700 0.219500
vn 0.886100 0.188800 0.423400
vn 0.839300 0.291700 0.458800
vn 0.600100 0.168800 -0.781900
vn 0.711300 -0.018300 -0.702600
vn 0.884800 -0.213200 -0.414300
vn 0.953800 -0.297900 -0.039800
vn 0.900100 -0.263500 0.346900
vn 0.828500 -0.158700 0.537000
vn 0.682100 -0.224800 -0.695800
vn 0.800400 -0.372900 -0.469300
vn 0.885800 -0.462200 -0.042300
vn 0.868000 -0.427900 0.251800
vn 0.799400 -0.461300 -0.384900
vn 0.847100 -0.510400 -0.148100
vn 0.812700 0.582300 0.020100
vn 0.473200 0.734800 0.486000
vn 0.607800 0.545600 0.577000
vn 0.545900 0.791700 0.274200
vn 0.649600 0.759000 0.044200
vn 0.659600 0.749200 -0.060700
vn 0.693300 0.706200 -0.143900
vn 0.695300 0.612700 -0.375800
vn 0.757400 0.346200 0.553600
vn 0.271200 0.649900 0.710000
vn 0.400500 0.479000 0.781200
vn 0.743000 -0.118400 0.658700
vn 0.602600 0.129200 0.787500
vn 0.822900 -0.410100 0.393300
vn 0.717600 -0.296800 0.630000
vn 0.851500 -0.522800 0.041000
vn 0.826200 -0.497400 0.264600
vn 0.829200 -0.526700 0.187100
usemtl Material.001
s 1
f 55//1 56//2 57//3
f 58//4 56//2 55//1
f 59//5 56//2 58//4
f 60//6 56//2 59//5
f 61//7 56//2 60//6
f 62//8 56//2 61//7
f 63//9 56//2 62//8
f 57//3 56//2 63//9
f 55//1 57//3 64//10
f 55//1 65//11 66//12
f 59//5 58//4 66//12
f 59//5 67//13 68//14
f 61//7 60//6 68//14
f 61//7 69//15 70//16
f 63//9 62//8 70//16
f 63//9 71//17 64//10
f 72//18 73//19 74//20
f 64//10 72//18 75//21
f 74//20 76//22 77//23
f 66//12 65//11 75//21
f 77//23 76//22 78//24
f 66//12 77//23 79//25
f 78//24 80//26 81//27
f 68//14 67//13 79//25
f 81//27 80//26 82//28
f 68//14 81//27 83//29
f 82//28 84//30 85//31
f 70//16 69//15 83//29
f 85//31 84//30 86//32
f 70//16 85//31 87//33
f 86//32 73//19 72//18
f 64//10 71//17 87//33
f 74//20 73//19 88//34
f 74//20 89//35 90//36
f 78//24 76//22 90//36
f 78//24 91//37 92//38
f 82//28 80//26 92//38
f 82//28 93//39 94//40
f 86//32 84//30 94//40
f 86//32 95//41 88//34
f 88//34 96//42 97//43
f 97//43 96//42 98//44
f 90//36 89//35 97//43
f 99//45 97//43 98//44
f 90//36 99//45 100//46
f 100//46 99//45 98//44
f 92//38 91//37 100//46
f 101//47 100//46 98//44
f 92//38 101//47 102//48
f 102//48 101//47 98//44
f 94//40 93//39 102//48
f 103//49 102//48 98//44
f 94//40 103//49 104//50
f 104//50 103//49 98//44
f 88//34 95//41 104//50
f 96//42 104//50 98//44
f 65//11 55//1 64//10
f 58//4 55//1 66//12
f 67//13 59//5 66//12
f 60//6 59//5 68//14
f 69//15 61//7 68//14
f 62//8 61//7 70//16
f 71//17 63//9 70//16
f 57//3 63//9 64//10
f 75//21 72//18 74//20
f 65//11 64//10 75//21
f 75//21 74//20 77//23
f 77//23 66//12 75//21
f 79//25 77//23 78//24
f 67//13 66//12 79//25
f 79//25 78//24 81//27
f 81//27 68//14 79//25
f 83//29 81//27 82//28
f 69//15 68//14 83//29
f 83//29 82//28 85//31
f 85//31 70//16 83//29
f 87//33 85//31 86//32
f 71//17 70//16 87//33
f 87//33 86//32 72//18
f 72//18 64//10 87//33
f 89//35 74//20 88//34
f 76//22 74//20 90//36
f 91//37 78//24 90//36
f 80//26 78//24 92//38
f 93//39 82//28 92//38
f 84//30 82//28 94//40
f 95//41 86//32 94//40
f 73//19 86//32 88//34
f 89//35 88//34 97//43
f 99//45 90//36 97//43
f 91//37 90//36 100//46
f 101//47 92//38 100//46
f 93//39 92//38 102//48
f 103//49 94//40 102//48
f 95//41 94//40 104//50
f 96//42 88//34 104//50
usemtl Material.002
f 105//51 106//2 107//52
f 108//53 106//2 105//51
f 109//54 106//2 108//53
f 110//55 106//2 109//54
f 111//56 106//2 110//55
f 112//57 106//2 111//56
f 113//58 106//2 112//57
f 114//59 106//2 113//58
f 115//60 106//2 114//59
f 116//61 106//2 115//60
f 117//62 106//2 116//61
f 107//52 106//2 117//62
f 119//63 105//51 107//52
f 120//64 108//53 105//51
f 121//65 109//54 108//53
f 121//65 122//66 110//55
f 122//66 123//67 111//56
f 123//67 124//68 112//57
f 125//69 113//58 112//57
f 125//69 126//70 114//59
f 126//70 127//71 115//60
f 128//72 116//61 115//60
f 128//72 129//73 117//62
f 129//73 118//74 107//52
f 130//75 131//76 119//63
f 132//77 120//64 119//63
f 133//78 121//65 120//64
f 134//79 122//66 121//65
f 134//79 135//80 123//67
f 136//81 124//68 123//67
f 136//81 137//82 125//69
f 137//82 138//83 126//70
f 138//83 139//84 127//71
f 140//85 128//72 127//71
f 140//85 141//86 129//73
f 130//75 118//74 129//73
f 143//87 131//76 130//75
f 144//88 132//77 131//76
f 144//88 145//89 133//78
f 146//90 134//79 133//78
f 146//90 147//91 135//80
f 147//91 148//92 136//81
f 149//93 137//82 136//81
f 150//94 138//83 137//82
f 150//94 151//95 139//84
f 152//96 140//85 139//84
f 153//97 141//86 140//85
f 153//97 142//98 130//75
f 154//99 155//100 143//87
f 155//100 156//101 144//88
f 156//101 157//102 145//89
f 158//103 146//90 145//89
f 159//104 147//91 146//90
f 160//105 148//92 147//91
f 161//106 149//93 148//92
f 162//107 150//94 149//93
f 163//108 151//95 150//94
f 164//109 152//96 151//95
f 165//110 153//97 152//96
f 165//110 154//99 142//98
f 167//111 155//100 154//99
f 168//112 156//101 155//100
f 169//113 157//102 156//101
f 169//113 170//114 158//103
f 170//114 171//115 159//104
f 171//115 172//116 160//105
f 172//116 173//117 161//106
f 173//117 174//118 162//107
f 174//118 175//119 163//108
f 175//119 176//120 164//109
f 177//121 165//110 164//109
f 166//122 154//99 165//110
f 178//123 179//124 167//111
f 179//124 180//125 168//112
f 181//126 169//113 168//112
f 181//126 182//127 170//114
f 183//128 171//115 170//114
f 184//129 172//116 171//115
f 184//129 185//130 173//117
f 185//130 186//131 174//118
f 187//132 175//119 174//118
f 187//132 188//133 176//120
f 188//133 189//134 177//121
f 178//123 166//122 177//121
f 191//135 179//124 178//123
f 191//135 192//136 180//125
f 192//136 193//137 181//126
f 194//138 182//127 181//126
f 195//139 183//128 182//127
f 195//139 196//140 184//129
f 197//141 185//130 184//129
f 197//141 198//142 186//131
f 199//143 187//132 186//131
f 199//143 200//144 188//133
f 201//145 189//134 188//133
f 201//145 190//146 178//123
f 202//147 203//148 191//135
f 203//148 204//149 192//136
f 204//149 205//150 193//137
f 206//151 194//138 193//137
f 207//152 195//139 194//138
f 208//153 196//140 195//139
f 208//153 209//154 197//141
f 209//154 210//155 198//142
f 211//156 199//143 198//142
f 211//156 212//157 200//144
f 213//158 201//145 200//144
f 202//147 190//146 201//145
f 214//44 203//148 202//147
f 214//44 204//149 203//148
f 214//44 205//150 204//149
f 214//44 206//151 205//150
f 214//44 207//152 206//151
f 214//44 208//153 207//152
f 214//44 209//154 208//153
f 214//44 210//155 209//154
f 214//44 211//156 210//155
f 214//44 212//157 211//156
f 214//44 213//158 212//157
f 214//44 202//147 213//158
f 118//74 119//63 107//52
f 119//63 120//64 105//51
f 120//64 121//65 108//53
f 109//54 121//65 110//55
f 110//55 122//66 111//56
f 111//56 123//67 112//57
f 124//68 125//69 112//57
f 113//58 125//69 114//59
f 114//59 126//70 115//60
f 127//71 128//72 115//60
f 116//61 128//72 117//62
f 117//62 129//73 107//52
f 118//74 130//75 119//63
f 131//76 132//77 119//63
f 132//77 133//78 120//64
f 133//78 134//79 121//65
f 122//66 134//79 123//67
f 135//80 136//81 123//67
f 124//68 136//81 125//69
f 125//69 137//82 126//70
f 126//70 138//83 127//71
f 139//84 140//85 127//71
f 128//72 140//85 129//73
f 141//86 130//75 129//73
f 142//98 143//87 130//75
f 143//87 144//88 131//76
f 132//77 144//88 133//78
f 145//89 146//90 133//78
f 134//79 146//90 135//80
f 135//80 147//91 136//81
f 148//92 149//93 136//81
f 149//93 150//94 137//82
f 138//83 150//94 139//84
f 151//95 152//96 139//84
f 152//96 153//97 140//85
f 141//86 153//97 130//75
f 142//98 154//99 143//87
f 143//87 155//100 144//88
f 144//88 156//101 145//89
f 157//102 158//103 145//89
f 158//103 159//104 146//90
f 159//104 160//105 147//91
f 160//105 161//106 148//92
f 161//106 162//107 149//93
f 162//107 163//108 150//94
f 163//108 164//109 151//95
f 164//109 165//110 152//96
f 153//97 165//110 142//98
f 166//122 167//111 154//99
f 167//111 168//112 155//100
f 168//112 169//113 156//101
f 157//102 169//113 158//103
f 158//103 170//114 159//104
f 159//104 171//115 160//105
f 160//105 172//116 161//106
f 161//106 173//117 162//107
f 162//107 174//118 163//108
f 163//108 175//119 164//109
f 176//120 177//121 164//109
f 177//121 166//122 165//110
f 166//122 178//123 167//111
f 167//111 179//124 168//112
f 180//125 181//126 168//112
f 169//113 181//126 170//114
f 182//127 183//128 170//114
f 183//128 184//129 171//115
f 172//116 184//129 173//117
f 173//117 185//130 174//118
f 186//131 187//132 174//118
f 175//119 187//132 176//120
f 176//120 188//133 177//121
f 189//134 178//123 177//121
f 190//146 191//135 178//123
f 179//124 191//135 180//125
f 180//125 192//136 181//126
f 193//137 194//138 181//126
f 194//138 195//139 182//127
f 183//128 195//139 184//129
f 196//140 197//141 184//129
f 185//130 197//141 186//131
f 198//142 199//143 186//131
f 187//132 199//143 188//133
f 200//144 201//145 188//133
f 189//134 201//145 178//123
f 190//146 202//147 191//135
f 191//135 203//148 192//136
f 192//136 204//149 193//137
f 205//150 206//151 193//137
f 206//151 207//152 194//138
f 207//152 208//153 195//139
f 196//140 208//153 197//141
f 197//141 209//154 198//142
f 210//155 211//156 198//142
f 199//143 211//156 200//144
f 212//157 213//158 200//144
f 213//158 202//147 201//145
usemtl Material_NONE
f 1//159 2//160 3//161
f 1//159 4//162 2//160
f 1//159 5//163 4//162
f 1//159 6//164 5//163
f 1//159 7//165 6//164
f 1//159 8//166 7//165
f 1//159 9//167 8//166
f 3//161 2//160 10//168
f 2//160 4//162 11//169
f 2//160 11//169 10//168
f 4//162 5//163 12//170
f 4//162 12//170 11//169
f 5//163 6//164 13//171
f 5//163 13//171 12//170
f 7//165 14//172 13//171
f 7//165 13//171 6//164
f 8//166 15//173 14//172
f 8//166 14//172 7//165
f 9//167 15//173 8//166
f 10//168 11//169 16//174
f 11//169 12//170 17//175
f 11//169 17//175 16//174
f 13//171 18//176 17//175
f 13//171 17//175 12//170
f 14//172 19//177 18//176
f 14//172 18//176 13//171
f 15//173 19//177 14//172
f 16//174 17//175 20//178
f 18//176 21//179 20//178
f 18//176 20//178 17//175
f 19//177 21//179 18//176
f 22//180 23//181 24//182
f 22//180 25//183 23//181
f 22//180 26//184 25//183
f 22//180 27//185 26//184
f 22//180 28//186 27//185
f 22//180 29//187 28//186
f 22//180 30//160 29//187
f 22//180 31//162 30//160
f 22//180 32//163 31//162
f 22//180 33//164 32//163
f 22//180 34//165 33//164
f 22//180 35//166 34//165
f 22//180 36//188 35//166
f 22//180 24//182 36//188
f 23//181 37//189 38//190
f 23//181 38//190 24//182
f 25//183 37//189 23//181
f 29//187 30//160 39//168
f 30//160 31//162 40//169
f 30//160 40//169 39//168
f 31//162 32//163 41//170
f 31//162 41//170 40//169
f 32//163 33//164 42//171
f 32//163 42//171 41//170
f 34//165 43//172 42//171
f 34//165 42//171 33//164
f 35//166 44//191 43//172
f 35//166 43//172 34//165
f 36//188 45//192 44//191
f 36//188 44//191 35//166
f 24//182 38//190 45//192
f 24//182 45//192 36//188
f 39//168 40//169 46//174
f 40//169 41//170 47//175
f 40//169 47//175 46//174
f 42//171 48//176 47//175
f 42//171 47//175 41//170
f 43//172 49//193 48//176
f 43//172 48//176 42//171
f 44//191 50//194 49//193
f 44//191 49//193 43//172
f 45//192 50//194 44//191
f 46//174 47//175 51//178
f 48//176 52//195 51//178
f 48//176 51//178 47//175
f 49//193 53//196 52//195
f 49//193 52//195 48//176
f 50//194 53//196 49//193
f 53//196 54//197 52//195
