# Blender v2.76 (sub 0) OBJ File: ''
# www.blender.org
mtllib tile.mtl
o Cube.001
v 6.440244 0.350787 6.440244
v -6.440245 0.350787 6.440243
v -6.440241 0.350787 -6.440246
v -6.440243 -0.350787 -6.440244
v -6.440246 -0.350787 6.440241
v 6.440239 -0.350787 6.440248
v 6.440247 -0.350787 -6.440240
v 6.440244 0.350787 -6.4402435
vn 0.000000 -1.000000 -0.000000
vn -0.000000 1.000000 0.000000
vn -1.000000 -0.000000 -0.000000
vn 0.000000 -0.000000 -1.000000
vn 1.000000 -0.000000 0.000000
vn -0.000000 0.000000 1.000000
usemtl Material.004
s 1
f 1//1 2//1 3//1
f 4//2 5//2 6//2
f 7//3 6//3 1//3
f 6//4 5//4 2//4
f 2//5 5//5 4//5
f 8//6 3//6 4//6
f 8//1 1//1 3//1
f 7//2 4//2 6//2
f 8//3 7//3 1//3
f 1//4 6//4 2//4
f 3//5 2//5 4//5
f 7//6 8//6 4//6
