# Blender v2.76 (sub 0) OBJ File: ''
# www.blender.org
mtllib tile.mtl
o Cube
v 6.440244 0.350787 -6.440243
v 6.440244 0.350787 6.440244
v -6.440245 0.350787 6.440243
v -6.440241 0.350787 -6.440246
v 6.440247 -0.350787 -6.440240
v 6.440239 -0.350787 6.440248
v -6.440246 -0.350787 6.440241
v -6.440243 -0.350787 -6.440244
vn 0.000000 -1.000000 -0.000000
vn 0.000000 1.000000 0.000000
vn -1.000000 0.000000 -0.000000
vn 0.000000 0.000000 -1.000000
vn 1.000000 -0.000000 0.000000
vn -0.000000 0.000000 1.000000
usemtl Material.004
s off
f 2//1 3//1 4//1
f 8//2 7//2 6//2
f 5//3 6//3 2//3
f 6//4 7//4 3//4
f 3//5 7//5 8//5
f 1//6 4//6 8//6
f 1//1 2//1 4//1
f 5//2 8//2 6//2
f 1//3 5//3 2//3
f 2//4 6//4 3//4
f 4//5 3//5 8//5
f 5//6 1//6 8//6
