# Blender v2.76 (sub 0) OBJ File: 'blockA.blend'
# www.blender.org
mtllib blockA.mtl
o Cube
v 0.152101 -1.445448 -1.960662
v 0.152101 -1.445448 1.960662
v -0.152101 -1.445448 1.960662
v -0.152101 -1.445448 -1.960663
v 0.152101 1.445448 -1.960661
v 0.152100 1.445448 1.960663
v -0.152101 1.445448 1.960661
v -0.152101 1.445448 -1.960662
vt 0.749978 0.371115
vt 0.500022 0.371115
vt 0.500022 0.121159
vt 0.749978 0.621072
vt 0.749978 0.871029
vt 0.500022 0.871029
vt 0.500022 0.621072
vt 0.250065 0.621072
vt 0.250065 0.371116
vt 0.000108 0.621072
vt 0.000108 0.371116
vt 0.999935 0.371115
vt 0.999935 0.621072
vt 0.749978 0.121159
vn 0.000000 -1.000000 0.000000
vn 0.000000 1.000000 0.000000
vn 1.000000 0.000000 0.000000
vn -0.000000 0.000000 1.000000
vn -1.000000 -0.000000 -0.000000
vn 0.000000 0.000000 -1.000000
usemtl マテリアル
s off
f 1/1/1 2/2/1 3/3/1
f 5/4/2 8/5/2 7/6/2
f 5/4/3 6/7/3 2/2/3
f 6/7/4 7/8/4 3/9/4
f 7/8/5 8/10/5 4/11/5
f 1/1/6 4/12/6 8/13/6
f 4/14/1 1/1/1 3/3/1
f 6/7/2 5/4/2 7/6/2
f 1/1/3 5/4/3 2/2/3
f 2/2/4 6/7/4 3/9/4
f 3/9/5 7/8/5 4/11/5
f 5/4/6 1/1/6 8/13/6
