# Blender v2.76 (sub 0) OBJ File: 'stone2.blend'
# www.blender.org
mtllib stone2.mtl
o Stone_2
v 0.804790 -0.000000 0.120584
v 0.828145 -0.000000 -0.045254
v 0.699333 -0.000000 -0.365951
v 0.427632 -0.000000 -0.453845
v -0.032264 0.000000 0.763586
v -0.317226 -0.000000 -0.176989
v -0.336180 0.000000 0.905221
v -0.529513 0.000000 0.740095
v -0.467056 0.000000 0.320987
v -0.480955 -0.000000 0.076901
v 0.602898 0.835020 0.122094
v 0.510344 0.938706 -0.032095
v 0.417789 0.938706 -0.186284
v 0.325235 0.938706 -0.340472
v 0.335848 0.835020 0.296103
v 0.243549 0.979195 0.176029
v 0.150637 1.394313 -0.025920
v 0.057622 1.120070 -0.241688
v 0.069190 0.835020 0.522455
v -0.023960 0.938706 0.288631
v -0.116515 0.938706 0.134443
v -0.209070 0.938706 -0.019746
v -0.109648 0.835020 0.516286
v -0.291113 0.835020 0.448995
v -0.339484 0.747674 0.294476
v -0.476222 0.835020 0.140617
v 0.602898 0.404271 0.122094
v 0.510344 0.404271 -0.032094
v 0.593028 0.404271 -0.187594
v 0.325235 0.404271 -0.340472
v 0.057529 0.404271 -0.254138
v -0.307671 0.404271 -0.105440
v -0.476222 0.404271 0.140617
v -0.383667 0.404271 0.294806
v -0.331218 0.404271 0.449295
v -0.198117 0.404271 0.662150
v 0.069343 0.404271 0.543019
v 0.412974 0.404271 0.454161
v 0.408977 0.000000 1.080272
v 1.105859 0.000000 0.320031
v 0.912782 0.251569 0.299331
v 0.580124 0.356924 0.579122
v 0.184635 0.304844 0.755871
v 0.003262 0.000000 1.088816
v 0.243576 1.394313 0.179636
v 0.398311 1.394313 0.015722
v 0.359961 1.394313 -0.185851
v 0.325501 1.394313 -0.304830
v 0.058611 1.592452 -0.109458
v -0.062359 1.514635 0.005741
v -0.116515 1.394313 0.134442
v 0.075428 1.394313 0.223123
v 0.389854 -0.000000 -0.620462
v 0.015697 -0.000000 -0.530614
v -0.399527 -0.000000 -0.401735
v -0.366674 0.375685 -0.250352
v 0.000494 0.485642 -0.416287
v 0.047844 0.760634 -0.372648
v 0.247275 0.809624 -0.502127
v 0.270794 0.447435 -0.509281
v -0.228135 0.320482 0.891510
v -0.064979 0.000000 1.090667
v -0.034835 0.000000 0.777724
v -0.251790 0.000000 0.886734
v -0.397158 0.000000 1.073893
v 0.875211 0.776121 -0.044347
v 0.692977 0.372386 -0.042985
v 0.865139 0.485482 0.210042
v 1.140451 0.575657 0.184350
v 1.137551 0.668474 -0.203484
v 0.861336 0.485481 -0.298557
v 0.845039 -0.000000 0.113053
v 1.142428 -0.000000 0.207968
v 1.310787 -0.000000 -0.047605
v 1.138625 -0.000000 -0.300631
v 0.842689 -0.000000 -0.201279
v 0.510344 0.938706 -0.032095
v 0.510344 0.938706 -0.032095
v 0.602898 0.835020 0.122094
v 0.510344 0.938706 -0.032095
v -0.209070 0.938706 -0.019746
v -0.209070 0.938706 -0.019746
v -0.209070 0.938706 -0.019746
v -0.480955 -0.000000 0.076901
v -0.476222 0.404271 0.140617
v -0.480955 -0.000000 0.076901
v -0.476222 0.404271 0.140617
v -0.339484 0.747674 0.294476
v -0.339484 0.747674 0.294476
v -0.476222 0.835020 0.140617
v -0.476222 0.404271 0.140617
v -0.291113 0.835020 0.448995
v -0.291113 0.835020 0.448995
v -0.339484 0.747674 0.294476
v -0.109648 0.835020 0.516286
v -0.109648 0.835020 0.516286
v -0.291113 0.835020 0.448995
v -0.336180 0.000000 0.905221
v -0.198117 0.404271 0.662150
v -0.336180 0.000000 0.905221
v -0.198117 0.404271 0.662150
v 0.069190 0.835020 0.522455
v 0.069190 0.835020 0.522455
v -0.198117 0.404271 0.662150
v 0.335848 0.835020 0.296103
v 0.335848 0.835020 0.296103
v 0.069190 0.835020 0.522455
v 0.602898 0.404271 0.122094
v 0.602898 0.835020 0.122094
v 0.602898 0.835020 0.122094
v 0.335848 0.835020 0.296103
v 0.804790 -0.000000 0.120584
v 0.602898 0.404271 0.122094
v 0.804790 -0.000000 0.120584
v 0.602898 0.404271 0.122094
v 0.602898 0.404271 0.122094
v 0.417789 0.938706 -0.186284
v 0.417789 0.938706 -0.186284
v 0.325235 0.938706 -0.340472
v 0.417789 0.938706 -0.186284
v 0.325235 0.938706 -0.340472
v 0.057622 1.120070 -0.241688
v 0.325235 0.938706 -0.340472
v 0.057622 1.120070 -0.241688
v 0.057622 1.120070 -0.241688
v 0.325235 0.938706 -0.340472
v 0.325235 0.938706 -0.340472
v 0.325235 0.404271 -0.340472
v 0.325235 0.938706 -0.340472
v 0.325235 0.404271 -0.340472
v 0.427632 -0.000000 -0.453845
v 0.325235 0.404271 -0.340472
v -0.228135 0.320482 0.891510
v -0.228135 0.320482 0.891510
v -0.251790 0.000000 0.886734
v -0.228135 0.320482 0.891510
v 0.875211 0.776121 -0.044347
v 0.875211 0.776121 -0.044347
v 1.140451 0.575657 0.184350
v 0.875211 0.776121 -0.044347
v 0.875211 0.776121 -0.044347
v 1.140451 0.575657 0.184350
v 1.142428 -0.000000 0.207968
v 1.140451 0.575657 0.184350
vn 0.393700 0.854700 0.338400
vn 0.377000 0.723200 0.578600
vn 0.000000 1.000000 0.000000
vn 0.516500 0.843200 -0.149600
vn 0.516700 0.525100 0.676300
vn 0.186300 0.696400 0.693000
vn 0.258000 0.917100 0.303900
vn 0.400200 0.507600 0.763100
vn 0.424500 0.565400 0.707200
vn -0.088300 0.897100 0.433000
vn -0.490900 0.819900 0.294700
vn -0.497600 0.812600 -0.303600
vn -0.270700 0.948800 0.162500
vn -0.208300 0.759500 0.616300
vn 0.783100 0.612000 0.110300
vn 0.787600 0.395100 -0.472800
vn 0.859000 0.378100 -0.345000
vn 0.730500 0.561600 0.388400
vn 0.291000 0.326000 -0.899500
vn 0.441000 0.456800 -0.772500
vn 0.857400 -0.000000 -0.514700
vn 0.848400 0.277100 0.451100
vn 0.495800 -0.000000 -0.868400
vn 0.825100 0.271800 -0.495300
vn -0.228000 0.216300 -0.949300
vn -0.302000 0.153400 -0.940900
vn -0.274200 0.380000 -0.883400
vn -0.451200 0.191100 -0.871700
vn -0.836600 0.094800 -0.539500
vn -0.819200 0.118700 -0.561100
vn -0.293600 0.198900 -0.935000
vn -0.541200 -0.018500 -0.840700
vn -0.368400 0.213100 -0.904900
vn -0.645000 0.013400 -0.764100
vn -0.825000 0.000000 -0.565100
vn -0.565100 0.231200 -0.791900
vn -0.977100 0.205200 0.055600
vn -0.855200 -0.070900 0.513400
vn -0.924800 0.354500 -0.137800
vn -0.925500 0.211300 0.314200
vn -0.537300 0.561700 0.629100
vn -0.663000 0.623400 0.414600
vn -0.852200 0.110100 0.511500
vn -0.747500 0.000000 0.664300
vn -0.943200 0.088000 0.320200
vn -0.964800 0.124400 0.231700
vn -0.799400 0.333400 0.499800
vn -0.347500 0.033000 0.937100
vn 0.393800 0.362000 0.844900
vn 0.376400 0.379600 0.845100
vn 0.012300 0.812500 0.582900
vn 0.237800 0.648400 0.723200
vn 0.626100 0.527800 0.573900
vn 0.644400 0.501600 0.577300
vn 0.406500 0.043700 0.912600
vn -0.032600 0.326600 0.944600
vn 0.232400 0.371500 0.898900
vn 0.646700 0.036600 0.761900
vn 0.868000 0.000000 0.496500
vn 0.506000 0.375500 0.776500
vn 0.579200 0.292100 -0.761000
vn 0.520400 0.334800 -0.785600
vn 0.193400 0.974900 0.110600
vn 0.385900 0.915500 0.114100
vn 0.097600 0.920900 0.377300
vn 0.022300 0.944400 0.328100
vn -0.949800 0.295300 0.103700
vn -0.321600 0.779100 0.538100
vn 0.620200 0.070500 0.781300
vn 0.727200 -0.006000 0.686400
vn 0.852300 0.108700 -0.511600
vn 0.950500 0.252700 -0.180800
vn 0.856700 0.039700 -0.514300
vn 0.953400 0.121300 -0.276100
vn -0.170000 0.266000 -0.948900
vn -0.557500 0.065100 -0.827600
vn -0.705800 0.209700 -0.676700
vn -0.737300 0.183500 -0.650200
vn -0.857400 0.000000 0.514700
vn -0.953600 0.250300 -0.167200
vn -0.829600 0.252600 0.498000
vn -0.419400 0.000000 0.907800
vn 0.389000 -0.008000 0.921200
vn 0.249500 0.084300 0.964700
vn -0.922000 -0.046300 0.384500
vn -0.937500 -0.056400 0.343300
vn 0.161500 0.903600 0.396700
vn -0.311300 0.948400 -0.060300
vn -0.997000 -0.001200 0.077800
vn -0.922000 0.099400 0.374200
vn 0.228800 0.703900 -0.672400
vn -0.570200 0.294900 -0.766700
vn 0.951700 -0.000000 -0.306900
vn 0.877000 0.066300 -0.475900
vn 0.931800 0.295300 -0.211300
vn 0.927200 0.301800 -0.221800
vn 0.866100 0.492800 0.083400
vn -0.448500 0.046400 -0.892600
vn -0.788000 0.067300 -0.612000
vn -0.043300 0.511300 0.858300
vn -0.835200 0.378300 0.399200
vn -0.145100 0.654500 0.742000
vn 0.474000 0.857100 0.201600
vn -0.178900 0.652600 -0.736300
vn -0.841100 0.378300 -0.386600
vn -0.926800 -0.375500 0.006900
vn -0.299400 -0.175000 0.938000
vn 0.834800 0.025400 0.549900
vn 0.823900 0.082800 -0.560600
vn -0.313400 -0.175000 -0.933400
vn -0.806100 -0.083700 0.585900
vn 0.079500 0.041100 0.996000
vn 0.963300 0.262600 0.055600
vn 0.238000 0.140100 -0.961100
vn -0.814700 -0.083700 -0.573700
usemtl Stone
s off
f 11//1 12//1 16//1
f 16//2 15//2 11//2
f 46//3 47//3 17//3
f 17//3 45//3 46//3
f 47//4 48//4 49//4
f 49//5 17//5 47//5
f 15//6 16//6 20//6
f 20//7 19//7 15//7
f 45//3 17//3 51//3
f 51//3 52//3 45//3
f 17//8 49//8 50//8
f 50//9 51//9 17//9
f 19//10 20//10 24//10
f 24//3 23//3 19//3
f 20//11 21//11 25//11
f 25//12 24//12 20//12
f 21//13 22//13 26//13
f 26//14 25//14 21//14
f 1//15 2//15 28//15
f 1//16 28//16 27//16
f 2//17 3//17 29//17
f 29//18 28//18 2//18
f 3//19 4//19 30//19
f 30//20 29//20 3//20
f 27//21 28//21 77//21
f 78//21 79//21 27//21
f 28//22 29//22 13//22
f 13//21 80//21 28//21
f 29//23 30//23 14//23
f 14//24 13//24 29//24
f 53//25 54//25 57//25
f 57//26 60//26 53//26
f 54//27 55//27 56//27
f 56//28 57//28 54//28
f 6//29 10//29 33//29
f 33//30 32//30 6//30
f 60//31 57//31 58//31
f 58//32 59//32 60//32
f 31//33 32//33 81//33
f 82//34 18//34 31//34
f 32//35 33//35 26//35
f 26//36 83//36 32//36
f 84//37 9//37 34//37
f 34//38 85//38 86//38
f 9//39 8//39 35//39
f 35//40 34//40 9//40
f 8//41 7//41 36//41
f 36//42 35//42 8//42
f 87//43 34//43 88//43
f 89//44 90//44 91//44
f 34//45 35//45 92//45
f 93//46 94//46 34//46
f 35//47 36//47 95//47
f 96//48 97//48 35//48
f 98//49 5//49 37//49
f 37//50 99//50 100//50
f 44//51 39//51 42//51
f 42//52 43//52 44//52
f 39//53 40//53 41//53
f 41//54 42//54 39//54
f 101//55 37//55 102//55
f 103//56 23//56 104//56
f 37//57 38//57 105//57
f 106//58 107//58 37//58
f 38//59 108//59 109//59
f 110//60 111//60 38//60
f 112//61 113//61 41//61
f 41//62 40//62 114//62
f 115//63 38//63 42//63
f 42//64 41//64 116//64
f 38//65 37//65 43//65
f 43//66 42//66 38//66
f 37//67 5//67 44//67
f 44//68 43//68 37//68
f 16//69 12//69 46//69
f 46//70 45//70 16//70
f 12//71 117//71 47//71
f 47//72 46//72 12//72
f 118//73 119//73 48//73
f 48//74 47//74 120//74
f 121//75 122//75 49//75
f 49//76 48//76 123//76
f 124//77 22//77 50//77
f 50//78 49//78 125//78
f 22//79 21//79 51//79
f 51//80 50//80 22//80
f 21//81 20//81 52//81
f 52//82 51//82 21//82
f 20//83 16//83 45//83
f 45//84 52//84 20//84
f 6//85 32//85 56//85
f 56//86 55//86 6//86
f 32//87 31//87 57//87
f 57//88 56//88 32//88
f 31//89 18//89 58//89
f 58//90 57//90 31//90
f 18//91 126//91 59//91
f 59//92 58//92 18//92
f 127//93 128//93 60//93
f 60//94 59//94 129//94
f 130//95 131//95 53//95
f 53//96 60//96 132//96
f 61//97 62//97 63//97
f 133//98 63//98 64//98
f 134//99 135//99 65//99
f 136//100 65//100 62//100
f 66//101 67//101 68//101
f 137//102 68//102 69//102
f 138//103 139//103 70//103
f 140//104 70//104 71//104
f 141//105 71//105 67//105
f 67//106 76//106 72//106
f 68//107 72//107 73//107
f 142//108 143//108 74//108
f 70//109 74//109 75//109
f 71//110 75//110 76//110
f 72//111 68//111 67//111
f 73//112 69//112 68//112
f 74//113 70//113 144//113
f 75//114 71//114 70//114
f 76//115 67//115 71//115
